#!OML:ASF H:\MichaelJackson\Top Level 1\Subject 1\Session 1\male.ASF
:FULLY-SPECIFIED
:DEGREES
500
root -8.99447 16.7553 -19.6507 -172.204 6.85835 -171.052
lowerback 8.5226 2.88114 4.44213
upperback 3.5436 4.59017 2.22265
thorax -0.93879 2.46841 -0.60738
lowerneck -10.4214 -1.78434 3.83175
upperneck 11.8423 -3.17913 0.12053
head 5.22232 -1.43129 -0.827866
rclavicle -3.96078e-014 1.0635e-014
rhumerus -7.79388 33.1211 -68.6606
rradius 86.0097
rwrist 39.8715
rhand -3.69024 -16.6953
rfingers 7.12502
rthumb 22.0514 -45.4581
lclavicle -3.96078e-014 1.0635e-014
lhumerus -64.945 -14.1701 99.7539
lradius 77.7403
lwrist 12.6586
lhand -29.4981 14.8613
lfingers 7.12502
lthumb -2.83272 44.8222
rfemur -25.621 -1.99059 34.2123
rtibia 37.5973
rfoot -16.2425 -2.44417
rtoes 30.5799
lfemur -52.7663 7.67782 -9.77421
ltibia 81.9209
lfoot 19.0828 -2.07279
ltoes 11.3594
501
root -8.99469 16.7461 -19.5732 -172.297 7.04005 -170.68
lowerback 8.33093 2.90821 4.42569
upperback 3.76695 4.64676 2.56182
thorax -0.630303 2.5184 -0.232933
lowerneck -10.5261 -1.71504 3.84818
upperneck 11.7826 -3.04666 -0.136686
head 5.21863 -1.3802 -0.901241
rclavicle 7.27552e-014 3.69243e-014
rhumerus -6.18858 32.3555 -68.6089
rradius 85.0061
rwrist 39.955
rhand -5.83075 -16.3691
rfingers 7.12502
rthumb 19.9951 -45.3603
lclavicle 7.27552e-014 3.69243e-014
lhumerus -66.2843 -13.3174 100.18
lradius 78.9928
lwrist 13.2843
lhand -29.676 15.7121
lfingers 7.12502
lthumb -3.00455 45.6707
rfemur -25.7481 -1.18441 34.5571
rtibia 37.6659
rfoot -15.9346 -3.09065
rtoes 30.2618
lfemur -52.3837 8.19414 -9.14487
ltibia 83.2536
lfoot 21.2125 -2.72097
ltoes 13.3853
502
root -9.01012 16.7418 -19.4897 -172.225 7.00338 -171.05
lowerback 8.60478 2.9323 4.04172
upperback 3.43514 4.64914 2.58313
thorax -1.15648 2.49016 -0.0325683
lowerneck -10.3491 -1.70629 3.85074
upperneck 12.0107 -3.01603 -0.336828
head 5.25682 -1.3804 -0.962354
rclavicle -4.52546e-014 1.0093e-014
rhumerus -5.61592 31.5649 -69.1928
rradius 83.9707
rwrist 40.0288
rhand -8.23646 -15.9956
rfingers 7.12502
rthumb 17.6813 -45.2117
lclavicle -4.52546e-014 1.0093e-014
lhumerus -68.3926 -12.6096 100.749
lradius 80.2832
lwrist 14.2808
lhand -29.7779 16.7702
lfingers 7.12502
lthumb -3.10293 46.7274
rfemur -26.2207 -0.782115 34.0527
rtibia 37.7419
rfoot -15.7315 -3.08237
rtoes 31.0341
lfemur -52.2002 8.21404 -9.41987
ltibia 84.4009
lfoot 23.2738 -3.27007
ltoes 14.2754
503
root -9.02254 16.7385 -19.4069 -172.169 6.94556 -171.079
lowerback 8.24628 2.87664 3.93194
upperback 3.64826 4.55903 2.71932
thorax -0.761039 2.46072 0.207662
lowerneck -10.4251 -1.65953 3.8447
upperneck 11.7161 -2.91617 -0.462078
head 5.17763 -1.33814 -0.990296
rclavicle -8.59744e-015 -1.26725e-014
rhumerus -4.0066 30.6984 -69.3495
rradius 82.7101
rwrist 39.9583
rhand -10.7088 -15.6113
rfingers 7.12502
rthumb 15.301 -45.0253
lclavicle -8.59744e-015 -1.26725e-014
lhumerus -69.5593 -11.9411 101.14
lradius 81.1875
lwrist 15.0951
lhand -31.169 15.885
lfingers 7.12502
lthumb -4.44634 45.8184
rfemur -26.6134 -0.658553 33.9523
rtibia 37.8081
rfoot -15.4646 -2.95775
rtoes 31.5615
lfemur -51.8662 8.35029 -9.27748
ltibia 85.4171
lfoot 25.193 -3.99384
ltoes 15.1504
504
root -9.04033 16.7432 -19.3261 -172.029 6.71735 -171.487
lowerback 8.4399 2.84538 3.69151
upperback 3.29059 4.48588 2.6462
thorax -1.25137 2.39627 0.244143
lowerneck -10.1755 -1.6961 3.82107
upperneck 11.7712 -2.95907 -0.475242
head 5.15196 -1.36439 -0.991426
rclavicle 4.60932e-014 3.73715e-014
rhumerus -3.61316 29.8595 -70.1533
rradius 81.4982
rwrist 39.8763
rhand -13.6016 -15.3656
rfingers 7.12502
rthumb 12.5133 -44.971
lclavicle 4.60932e-014 3.73715e-014
lhumerus -71.5614 -11.4884 101.658
lradius 82.2446
lwrist 16.0253
lhand -33.0406 13.7202
lfingers 7.12502
lthumb -6.25338 43.6079
rfemur -27.2127 -1.23905 33.4987
rtibia 37.9116
rfoot -15.2157 -2.49275
rtoes 30.9188
lfemur -51.5206 8.1655 -9.56813
ltibia 86.2285
lfoot 27.4612 -4.27423
ltoes 18.5269
505
root -9.04214 16.737 -19.2467 -172.019 6.66955 -171.569
lowerback 8.06285 2.81339 3.40953
upperback 3.55612 4.41296 2.75631
thorax -0.800593 2.37457 0.553408
lowerneck -10.3834 -1.64392 3.91648
upperneck 11.4846 -2.87099 -0.612852
head 5.09592 -1.32293 -1.0422
rclavicle 1.01132e-014 1.65488e-014
rhumerus -2.01646 29.0431 -70.4082
rradius 79.9602
rwrist 39.5884
rhand -16.7551 -15.1547
rfingers 7.12502
rthumb 9.47163 -44.9219
lclavicle 1.01132e-014 1.65488e-014
lhumerus -72.55 -11.0468 101.949
lradius 83.1909
lwrist 16.9111
lhand -33.9466 13.0495
lfingers 7.12502
lthumb -7.12803 42.9095
rfemur -27.6068 -1.06058 33.3505
rtibia 38.0214
rfoot -14.9397 -2.50495
rtoes 30.7444
lfemur -50.9171 8.36594 -9.3966
ltibia 86.9293
lfoot 29.0523 -5.0894
ltoes 18.6587
506
root -9.04343 16.7288 -19.1689 -172.061 6.6267 -171.464
lowerback 8.28668 2.83344 3.38148
upperback 3.42463 4.45523 2.86115
thorax -1.06992 2.3897 0.65346
lowerneck -10.2308 -1.65713 3.92418
upperneck 11.3911 -2.88554 -0.589892
head 5.04124 -1.33016 -1.03448
rclavicle -3.98563e-014 8.94531e-015
rhumerus -1.33339 28.2691 -71.1118
rradius 78.4245
rwrist 39.4648
rhand -19.9537 -15.1376
rfingers 7.12502
rthumb 6.38456 -45.0214
lclavicle -3.98563e-014 8.94531e-015
lhumerus -74.1887 -10.7034 102.35
lradius 84.1807
lwrist 17.507
lhand -33.3935 14.1803
lfingers 7.12502
lthumb -6.59407 44.0576
rfemur -27.9357 -0.850998 33.3847
rtibia 38.0956
rfoot -14.5695 -2.43838
rtoes 30.8001
lfemur -50.1297 8.68906 -9.0149
ltibia 87.4932
lfoot 29.9939 -6.24962
ltoes 18.0285
